<?xml version="1.0" standalone="no"?>
<!DOCTYPE svg PUBLIC "-//W3C//DTD SVG 20010904//EN"
 "http://www.w3.org/TR/2001/REC-SVG-20010904/DTD/svg10.dtd">
<svg version="1.0" xmlns="http://www.w3.org/2000/svg"
 width="200.000000pt" height="200.000000pt" viewBox="0 0 200.000000 200.000000"
 preserveAspectRatio="xMidYMid meet">
<metadata>
Created by potrace 1.16, written by Peter Selinger 2001-2019
</metadata>
<g transform="translate(0.000000,200.000000) scale(0.100000,-0.100000)"
fill="#000000" stroke="none">
<path d="M120 1635 l0 -245 245 0 245 0 0 245 0 245 -245 0 -245 0 0 -245z
m420 0 l0 -175 -175 0 -175 0 0 175 0 175 175 0 175 0 0 -175z"/>
<path d="M260 1635 l0 -105 105 0 105 0 0 105 0 105 -105 0 -105 0 0 -105z"/>
<path d="M680 1810 l0 -70 70 0 70 0 0 -70 0 -70 -70 0 -70 0 0 -245 0 -245
-35 0 c-33 0 -35 2 -35 35 0 33 -2 35 -35 35 -33 0 -35 2 -35 35 0 33 2 35 35
35 33 0 35 2 35 35 l0 35 -70 0 -70 0 0 -35 0 -35 -70 0 -70 0 0 35 0 35 -105
0 -105 0 0 -35 0 -35 70 0 70 0 0 -35 0 -35 70 0 70 0 0 -35 0 -35 -70 0 -70
0 0 -70 0 -70 -35 0 c-33 0 -35 2 -35 35 0 33 -2 35 -35 35 -33 0 -35 -2 -35
-35 0 -33 2 -35 35 -35 33 0 35 -2 35 -35 0 -33 -2 -35 -35 -35 -33 0 -35 -2
-35 -35 l0 -35 70 0 70 0 0 -35 0 -35 -70 0 -70 0 0 -35 0 -35 105 0 105 0 0
70 0 70 35 0 35 0 0 -70 0 -70 35 0 35 0 0 70 0 70 140 0 140 0 0 -35 0 -35
-105 0 -105 0 0 -35 0 -35 70 0 70 0 0 -35 c0 -33 2 -35 35 -35 33 0 35 2 35
35 l0 35 70 0 70 0 0 -105 0 -105 -70 0 -70 0 0 35 c0 33 -2 35 -35 35 -33 0
-35 -2 -35 -35 0 -33 2 -35 35 -35 l35 0 0 -70 0 -70 -35 0 -35 0 0 -105 0
-105 70 0 70 0 0 70 0 70 35 0 35 0 0 -70 0 -70 35 0 35 0 0 70 0 70 140 0
140 0 0 -70 0 -70 105 0 105 0 0 35 0 35 70 0 70 0 0 -35 c0 -33 2 -35 35 -35
33 0 35 2 35 35 0 33 -2 35 -35 35 l-35 0 0 70 0 70 70 0 70 0 0 -35 0 -35 70
0 70 0 0 35 c0 33 -2 35 -35 35 -33 0 -35 2 -35 35 l0 35 -70 0 -70 0 0 35 c0
33 -2 35 -35 35 -33 0 -35 2 -35 35 0 33 2 35 35 35 33 0 35 2 35 35 0 33 2
35 35 35 33 0 35 2 35 35 0 33 2 35 35 35 l35 0 0 -70 0 -70 -35 0 c-33 0 -35
-2 -35 -35 0 -33 2 -35 35 -35 33 0 35 2 35 35 0 33 2 35 35 35 l35 0 0 70 0
70 -35 0 c-33 0 -35 2 -35 35 0 33 -2 35 -35 35 -33 0 -35 -2 -35 -35 0 -33
-2 -35 -35 -35 -33 0 -35 -2 -35 -35 0 -33 -2 -35 -35 -35 l-35 0 0 105 0 105
70 0 70 0 0 35 c0 33 2 35 35 35 33 0 35 -2 35 -35 0 -33 2 -35 35 -35 l35 0
0 105 0 105 -35 0 c-33 0 -35 -2 -35 -35 0 -33 -2 -35 -35 -35 -33 0 -35 -2
-35 -35 l0 -35 -105 0 -105 0 0 70 0 70 70 0 70 0 0 35 c0 33 2 35 35 35 33 0
35 2 35 35 0 33 2 35 35 35 33 0 35 -2 35 -35 0 -33 2 -35 35 -35 l35 0 0 105
0 105 -70 0 -70 0 0 -70 0 -70 -35 0 c-33 0 -35 2 -35 35 0 33 -2 35 -35 35
-33 0 -35 2 -35 35 l0 35 -140 0 -140 0 0 70 0 70 -35 0 -35 0 0 -70 0 -70
-35 0 -35 0 0 70 0 70 -35 0 -35 0 0 -140 0 -140 -35 0 -35 0 0 70 0 70 -35 0
c-33 0 -35 2 -35 35 0 33 2 35 35 35 l35 0 0 70 0 70 35 0 35 0 0 70 0 70 35
0 c33 0 35 -2 35 -35 0 -33 2 -35 35 -35 33 0 35 -2 35 -35 0 -33 2 -35 35
-35 l35 0 0 105 0 105 -35 0 c-33 0 -35 -2 -35 -35 0 -33 -2 -35 -35 -35 -33
0 -35 2 -35 35 l0 35 -70 0 -70 0 0 -35 c0 -33 -2 -35 -35 -35 -33 0 -35 2
-35 35 0 33 -2 35 -35 35 -33 0 -35 2 -35 35 l0 35 70 0 70 0 0 35 0 35 -105
0 -105 0 0 -35 c0 -33 -2 -35 -35 -35 -33 0 -35 2 -35 35 0 33 -2 35 -35 35
l-35 0 0 -70z m280 -175 c0 -33 2 -35 35 -35 33 0 35 -2 35 -35 0 -33 -2 -35
-35 -35 l-35 0 0 -70 0 -70 -35 0 c-33 0 -35 2 -35 35 0 33 -2 35 -35 35 l-35
0 0 -70 0 -70 -35 0 -35 0 0 105 0 105 70 0 70 0 0 70 0 70 35 0 c33 0 35 -2
35 -35z m350 -350 c0 -33 2 -35 35 -35 33 0 35 -2 35 -35 0 -33 -2 -35 -35
-35 l-35 0 0 -70 0 -70 35 0 35 0 0 -70 0 -70 -35 0 c-33 0 -35 -2 -35 -35 0
-33 -2 -35 -35 -35 -33 0 -35 2 -35 35 0 33 2 35 35 35 33 0 35 2 35 35 0 33
-2 35 -35 35 l-35 0 0 105 0 105 35 0 c33 0 35 2 35 35 0 33 -2 35 -35 35 -33
0 -35 2 -35 35 0 33 2 35 35 35 33 0 35 -2 35 -35z m-770 -140 c0 -33 2 -35
35 -35 33 0 35 -2 35 -35 0 -33 2 -35 35 -35 33 0 35 2 35 35 0 33 2 35 35 35
33 0 35 2 35 35 l0 35 70 0 70 0 0 -35 c0 -33 2 -35 35 -35 33 0 35 2 35 35 0
33 2 35 35 35 33 0 35 -2 35 -35 l0 -35 70 0 70 0 0 -35 c0 -33 -2 -35 -35
-35 l-35 0 0 -70 0 -70 -35 0 c-33 0 -35 2 -35 35 0 33 -2 35 -35 35 -33 0
-35 2 -35 35 0 33 -2 35 -35 35 l-35 0 0 -70 0 -70 -35 0 c-33 0 -35 -2 -35
-35 0 -33 -2 -35 -35 -35 -33 0 -35 2 -35 35 0 33 -2 35 -35 35 -33 0 -35 2
-35 35 0 33 -2 35 -35 35 -33 0 -35 -2 -35 -35 0 -33 -2 -35 -35 -35 -33 0
-35 2 -35 35 0 33 2 35 35 35 33 0 35 2 35 35 l0 35 -70 0 -70 0 0 -105 0
-105 -35 0 -35 0 0 140 0 140 35 0 c33 0 35 2 35 35 0 33 2 35 35 35 33 0 35
-2 35 -35z m630 -350 c0 -33 2 -35 35 -35 l35 0 0 -105 0 -105 -70 0 -70 0 0
-35 c0 -33 2 -35 35 -35 33 0 35 -2 35 -35 l0 -35 70 0 70 0 0 -70 0 -70 -35
0 c-33 0 -35 2 -35 35 0 33 -2 35 -35 35 -33 0 -35 2 -35 35 0 33 -2 35 -35
35 -33 0 -35 -2 -35 -35 0 -33 -2 -35 -35 -35 l-35 0 0 105 0 105 -35 0 c-33
0 -35 2 -35 35 l0 35 70 0 70 0 0 35 c0 33 -2 35 -35 35 l-35 0 0 70 0 70 70
0 70 0 0 -35z m350 -210 l0 -105 -105 0 -105 0 0 105 0 105 105 0 105 0 0
-105z m0 -245 l0 -70 -70 0 -70 0 0 70 0 70 70 0 70 0 0 -70z"/>
<path d="M1380 1635 l0 -245 245 0 245 0 0 245 0 245 -245 0 -245 0 0 -245z
m420 0 l0 -175 -175 0 -175 0 0 175 0 175 175 0 175 0 0 -175z"/>
<path d="M1520 1635 l0 -105 105 0 105 0 0 105 0 105 -105 0 -105 0 0 -105z"/>
<path d="M120 375 l0 -245 245 0 245 0 0 245 0 245 -245 0 -245 0 0 -245z
m420 0 l0 -175 -175 0 -175 0 0 175 0 175 175 0 175 0 0 -175z"/>
<path d="M260 375 l0 -105 105 0 105 0 0 105 0 105 -105 0 -105 0 0 -105z"/>
</g>
</svg>
